<svg xmlns="http://www.w3.org/2000/svg" width="15" height="15" viewBox="0 0 15 15"><defs><style>.a{fill:#009ad9;}</style></defs><path class="a" d="M80.5,59.066a13.4,13.4,0,0,1-13.4,13.4.916.916,0,0,1-.894-.712l-.68-2.95a.916.916,0,0,1,.53-1.046L69.227,66.4a.917.917,0,0,1,1.069.261l1.292,1.579a10.651,10.651,0,0,0,2.323-1.568,9.942,9.942,0,0,0,2.353-3.106l-1.579-1.292a.918.918,0,0,1-.261-1.069l1.362-3.179a.919.919,0,0,1,1.049-.531l2.952.684A.909.909,0,0,1,80.5,59.066Zm-.941.021-2.917-.674L75.291,61.56,77.424,63.3a11.318,11.318,0,0,1-6.1,6.1l-1.744-2.134-3.146,1.347.674,2.919A12.457,12.457,0,0,0,79.556,59.088Z" transform="translate(-65.497 -57.469)"/></svg>