<svg xmlns="http://www.w3.org/2000/svg" width="29.593" height="29.593" viewBox="0 0 29.593 29.593"><defs><style>.a{fill:#022943;}</style></defs><g transform="translate(1193.868 -531.427)"><path class="a" d="M-1179.072,531.947a14.331,14.331,0,0,1,2.719.267.089.089,0,0,0,.049,0c.173-.069.38-.148.6-.214a.088.088,0,0,0,.062-.087.088.088,0,0,0-.068-.083,14.813,14.813,0,0,0-3.358-.4,14.813,14.813,0,0,0-14.8,14.8,14.628,14.628,0,0,0,3.171,9.124.088.088,0,0,0,.069.034.088.088,0,0,0,.042-.011.088.088,0,0,0,.04-.106,8.762,8.762,0,0,1-.275-.936.089.089,0,0,0-.013-.03,14.176,14.176,0,0,1-2.514-8.074A14.292,14.292,0,0,1-1179.072,531.947Z" transform="translate(0 0)"/><path class="a" d="M-1100.665,582.672a.088.088,0,0,0-.093-.053.088.088,0,0,0-.075.076c-.032.258-.069.481-.113.682a.088.088,0,0,0,0,.049,14.177,14.177,0,0,1,.916,4.986,14.3,14.3,0,0,1-14.245,14.275.088.088,0,0,0-.032.006,8.754,8.754,0,0,1-.909.3.088.088,0,0,0-.065.094.088.088,0,0,0,.082.079l.23.015c.216.015.439.03.663.03a14.813,14.813,0,0,0,14.8-14.8A14.667,14.667,0,0,0-1100.665,582.672Z" transform="translate(-64.771 -42.189)"/><path class="a" d="M-1150.933,574.884c.791.237,1.192.6,1.192,1.094a.9.9,0,0,1-.432.7c-.135.1-.2.189-.2.282a.16.16,0,0,0,.158.182l.021,0c.868-.213,1.308-.651,1.308-1.3,0-.762-.519-1.313-1.542-1.642a5.759,5.759,0,0,0,1-3.159,1.86,1.86,0,0,0-.833-1.594,4.006,4.006,0,0,0-2.322-.578,6.692,6.692,0,0,0-.843.056,15.417,15.417,0,0,0,3.189-2.612c1.36-1.392,2.05-2.622,2.05-3.656,0-1.441-1.456-2.172-4.326-2.172a17.861,17.861,0,0,0-6.083,1.258,20.91,20.91,0,0,0-5.914,3.292c-1.684,1.362-2.538,2.712-2.538,4.014,0,1.037.589,1.563,1.75,1.563a6,6,0,0,0,2.175-.474,13.235,13.235,0,0,0,2.134-1.061,23.6,23.6,0,0,0,2.045-1.457,20.069,20.069,0,0,0,1.717-1.482l.014-.018c.163-.279.176-.334.176-.372,0-.094-.045-.252-.345-.252-.078,0-.2.045-.478.372a23.763,23.763,0,0,1-3.964,2.834,6.622,6.622,0,0,1-3.051.775c-.681,0-1.013-.262-1.013-.8,0-1.076.683-2.2,2.03-3.34a16.38,16.38,0,0,1,5.043-2.818,16.7,16.7,0,0,1,5.648-1.083c2.459,0,3.705.561,3.705,1.668a4.433,4.433,0,0,1-1.371,2.6,19.311,19.311,0,0,1-2.843,2.669,9.138,9.138,0,0,1-1.967,1.257c-.275.147-.4.269-.4.394,0,.1.06.217.346.217a.762.762,0,0,0,.41-.172,5.561,5.561,0,0,1,2.282-.484,3.068,3.068,0,0,1,1.89.533,1.564,1.564,0,0,1,.691,1.3,5.333,5.333,0,0,1-.684,2.594,10.013,10.013,0,0,0-1.875-.153,15.48,15.48,0,0,0-4.863.859,16.59,16.59,0,0,0-4.214,2c-1.12.782-1.665,1.445-1.665,2.027,0,.721.81,1.071,2.476,1.071a13.593,13.593,0,0,0,5.5-1.413A13.227,13.227,0,0,0-1150.933,574.884Zm-10.159,4.143c-.9,0-1.352-.171-1.352-.509,0-.25.255-.711,1.469-1.483a17.145,17.145,0,0,1,3.739-1.7,12.882,12.882,0,0,1,4-.745,9.947,9.947,0,0,1,1.649.138,8.884,8.884,0,0,1-2.781,2.332,15.426,15.426,0,0,1-3.585,1.514A12.375,12.375,0,0,1-1161.092,579.027Z" transform="translate(-22.106 -23.946)"/><path class="a" d="M-1131.479,582.1a22.452,22.452,0,0,0-1.745,3.066c0,.072.037.193.287.193a1.642,1.642,0,0,0,.609-.171,1.037,1.037,0,0,0,.555-.5c.856-1.432,2.207-3.741,4.017-6.862,2.74-4.728,2.74-4.777,2.74-4.821v-.042l-.187-.15-.633.2a.944.944,0,0,0-.514.388l-.049.081.015.008c-.087.177-.437.8-1.641,2.815Q-1129.746,579.183-1131.479,582.1Z" transform="translate(-49.979 -34.104)"/></g></svg>