<svg xmlns="http://www.w3.org/2000/svg" width="11.251" height="15" viewBox="0 0 11.251 15"><defs><style>.a{fill:#009ad9;}</style></defs><path class="a" d="M76.749,108.706c0,2.268-.791,2.9-5.048,9.072a.7.7,0,0,1-1.156,0c-4.257-6.172-5.047-6.8-5.047-9.072a5.625,5.625,0,0,1,11.251,0Zm-.938,0a4.688,4.688,0,1,0-9.376,0c0,1.889.606,2.358,4.688,8.259C75.2,111.064,75.811,110.6,75.811,108.706Zm-1.875,0a2.813,2.813,0,1,1-2.813-2.813A2.817,2.817,0,0,1,73.936,108.706Zm-.938,0a1.875,1.875,0,1,0-1.875,1.875A1.877,1.877,0,0,0,73,108.706Z" transform="translate(-65.498 -103.081)"/></svg>